<svg height="512pt" viewBox="0 -88 512.00099 512" width="512pt" xmlns="http://www.w3.org/2000/svg"><path d="m29.828125 284.945312h29.824219v50.175782h-29.824219zm0 0" fill="#fd9927"/><path d="m452.347656 284.945312h29.824219v50.175782h-29.824219zm0 0" fill="#fd9927"/><path d="m452.347656 284.945312h29.824219v50.175782h-29.824219zm0 0" fill="#fc5e1f"/><path d="m30.570312 225.941406c0-40.144531 32.660157-72.804687 72.804688-72.804687h22.636719c39.023437 0 76.519531-18.476563 100.292969-49.425781l44.394531-57.785157c22.09375-28.757812 56.9375-45.925781 93.199219-45.925781 64.808593 0 117.53125 52.726562 117.53125 117.53125v113.671875zm0 0" fill="#57dae0"/><path d="m363.898438 0c-36.261719 0-71.105469 17.167969-93.199219 45.925781l-11.21875 14.605469v168.082031l221.949219 2.589844v-113.671875c0-64.804688-52.722657-117.53125-117.53125-117.53125zm0 0" fill="#24aac6"/><path d="m512 296.296875v-129.328125c0-25.796875-20.988281-46.785156-46.785156-46.785156s-46.78125 20.984375-46.78125 46.785156l.53125 40.113281h-353.960938c-35.84375-.003906-65.003906 29.160157-65.003906 65.003907v24.210937zm0 0" fill="#24aac6"/><path d="m465.21875 120.183594c-25.796875 0-46.785156 20.984375-46.785156 46.785156l.53125 40.113281h-159.484375v89.214844h252.519531v-129.328125c0-25.796875-20.988281-46.785156-46.78125-46.785156zm0 0" fill="#3c8eb1"/></svg>