<svg height="477.60001pt" viewBox="0 0 477.60001 477.60001" width="477.60001pt" xmlns="http://www.w3.org/2000/svg"><path d="m477.601562 238.800781c0 131.886719-106.914062 238.800781-238.800781 238.800781s-238.800781-106.914062-238.800781-238.800781 106.914062-238.800781 238.800781-238.800781 238.800781 106.914062 238.800781 238.800781zm0 0" fill="#382b73"/><path d="m445.398438 238.800781c0 114.101563-92.496094 206.597657-206.597657 206.597657-114.101562 0-206.597656-92.496094-206.597656-206.597657 0-114.101562 92.496094-206.597656 206.597656-206.597656 114.101563 0 206.597657 92.496094 206.597657 206.597656zm0 0" fill="#473080"/><path d="m362.929688 365.601562c-.074219-.21875-.148438-.4375-.21875-.65625-.035157-.105468-.070313-.214843-.105469-.320312-.089844-.273438-.179688-.550781-.265625-.828125-.03125-.089844-.058594-.183594-.089844-.273437-.070312-.230469-.144531-.457032-.214844-.6875-.03125-.09375-.058594-.1875-.089844-.28125-.085937-.285157-.175781-.570313-.261718-.855469-.03125-.101563-.0625-.207031-.09375-.304688-.078125-.257812-.152344-.515625-.230469-.777343-.03125-.097657-.058594-.199219-.089844-.300782-.078125-.265625-.15625-.53125-.234375-.796875-.023437-.089843-.050781-.171875-.074218-.257812-.089844-.3125-.175782-.628907-.265626-.941407-.019531-.074218-.042968-.144531-.0625-.21875-.078124-.285156-.15625-.570312-.234374-.859374-.015626-.058594-.03125-.117188-.050782-.179688-.089844-.332031-.179687-.664062-.269531-1-.019531-.074219-.039063-.144531-.058594-.21875-.085937-.332031-.175781-.664062-.261719-1-.015624-.042969-.023437-.085938-.035156-.132812-.082031-.316407-.164062-.632813-.246094-.949219-.015624-.070313-.035156-.140625-.050781-.214844-.089843-.347656-.179687-.699219-.265625-1.050781-.011718-.042969-.023437-.089844-.03125-.132813-.085937-.34375-.171875-.691406-.253906-1.039062-.007812-.03125-.015625-.0625-.023438-.09375-.085937-.359375-.171874-.71875-.253906-1.082031-.019531-.070313-.035156-.140626-.050781-.210938-.085937-.367188-.171875-.734375-.257813-1.101562 0-.011719-.003906-.023438-.007812-.035157-.085938-.375-.167969-.753906-.253906-1.128906-1.570313-7.007813-2.929688-14.566406-4.082032-22.539063-.0625-.421874-.121093-.847656-.179687-1.277343-.011719-.070313-.023437-.136719-.03125-.207031-.125-.902344-.25-1.800782-.371094-2.710938-.007812-.078125-.019531-.15625-.03125-.238281-.058593-.433594-.113281-.871094-.171875-1.308594-.007812-.082031-.019531-.164063-.03125-.25-.058594-.449219-.113281-.898437-.171875-1.347656-.003906-.027344-.003906-.054688-.007812-.082031-.058594-.457032-.113281-.917969-.171875-1.382813-.003906-.039063-.007813-.074219-.011719-.113281-.058594-.472656-.113281-.941406-.167969-1.414063-.007812-.058593-.015625-.113281-.023437-.171875-.113281-.96875-.222657-1.941406-.332031-2.917968-.003907-.035157-.007813-.070313-.011719-.105469-.050781-.492188-.105469-.984375-.15625-1.472657l-.011719-.09375c-.105469-1.007812-.210938-2.019531-.308594-3.035156-.003906-.019531-.007812-.039062-.007812-.054687-1.039063-10.460938-1.765625-21.375-2.175782-32.472657-.527343-14.351562-.527343-29.003906 0-43.359374.410157-11.09375 1.136719-22.011719 2.175782-32.472657 0-.015625 0-.027343.003906-.042969.101562-1.019531.207031-2.039062.3125-3.046874.003906-.027344.007812-.058594.011719-.085938.050781-.496094.105469-.988281.160156-1.476562l.011719-.105469c.109375-.976563.21875-1.949219.332031-2.917969.007813-.058594.015625-.113281.019531-.171875.054688-.472656.113282-.945313.171875-1.414063.003907-.035156.007813-.074218.011719-.109374.058594-.46875.113281-.9375.171875-1.40625.003906-.019532.007813-.039063.007813-.058594.058593-.453125.113281-.910156.171874-1.363282.011719-.078124.019532-.15625.03125-.230468.058594-.441406.113282-.882813.171876-1.324219.011718-.074219.019531-.152344.03125-.226563.117187-.910156.242187-1.816406.371093-2.71875.007813-.066406.019531-.132812.027344-.199218.058594-.429688.121094-.855469.183594-1.285156 1.152343-7.96875 2.511719-15.527344 4.082031-22.527344.085938-.378906.167969-.757813.257812-1.136719 0-.011719.003907-.019531.007813-.03125.082031-.371094.167969-.734375.253906-1.101563.019531-.074218.039063-.148437.054688-.222656.082031-.355468.167969-.710937.253906-1.066406.007813-.039062.019531-.082031.027344-.121094.078125-.324218.15625-.640625.234375-.960937.019531-.074219.035156-.148438.054687-.21875.085938-.339844.167969-.675781.253907-1.011719.019531-.082031.039062-.160156.058593-.238281.078125-.304688.15625-.613281.238281-.917969.015626-.058594.03125-.121094.046876-.183594.082031-.308594.160156-.613281.242187-.917968.027344-.101563.054687-.207032.082031-.308594.085938-.308594.167969-.621094.25-.929688.027344-.09375.054688-.191406.082032-.289062.0625-.238282.128906-.472656.195312-.707032.027344-.109374.058594-.214843.089844-.320312.082031-.292969.164062-.582031.246094-.871094.03125-.113281.066406-.226562.097656-.339844.070312-.242187.140625-.484374.210937-.722656.039063-.125.074219-.253906.113281-.375.066407-.234375.136719-.464844.207032-.695312.039062-.125.074218-.25.113281-.375.085937-.273438.167969-.546875.253906-.820313.03125-.101562.0625-.203125.09375-.304687.070313-.214844.140625-.4375.207031-.652344.03125-.101562.0625-.199219.09375-.296875.089844-.269531.175782-.539063.261719-.8125.035157-.109375.074219-.21875.109375-.332031.078125-.230469.152344-.460938.230469-.691406.019531-.050782.035156-.101563.054687-.15625.390626-1.171876.527344-2.335938.449219-3.449219-.191406-2.714844-1.667969-5.128907-3.808593-6.628907-.085938-.054687-.167969-.113281-.257813-.171874-.085937-.058594-.175781-.113282-.269531-.167969-.179688-.109375-.363282-.210938-.554688-.308594-.109375-.054687-.21875-.109375-.332031-.160156-1-.457031-2.089844-.726563-3.226563-.777344-.109374-.003906-.210937-.003906-.316406-.003906-.003906 0-.007812 0-.015625-.003907-.21875 0-.4375.007813-.65625.023438-.1875.015625-.375.035156-.566406.0625-.027344.003906-.0625.007812-.089844.011719-.515625.078125-1.035156.203125-1.558593.378906-.039063.011719-.082032.027344-.121094.039063-.253906.082031-.507813.167968-.761719.253906-.089844.027344-.179687.058594-.265625.085937-.289062.097657-.582031.191407-.875.285157-.066406.019531-.136719.039062-.207031.066406-.257813.082031-.515625.164062-.777344.242187-.070313.023438-.140625.042969-.210937.066407-.300782.09375-.605469.1875-.90625.277343-.082032.023438-.160157.046875-.242188.074219-.296875.089844-.597656.179688-.902344.269531-.046875.011719-.089844.027344-.136718.039063-.304688.089844-.609376.179687-.914063.265625-.0625.019531-.128906.039062-.191406.058593-.324219.089844-.644531.183594-.96875.273438-.070313.023438-.140625.042969-.210938.058594-.304687.085937-.609375.171875-.917969.257812-.035156.007813-.066406.015625-.097656.023438-.351562.097656-.703125.195312-1.058594.285156-.046874.015625-.09375.027344-.144531.039062-.355469.09375-.710937.191407-1.074219.285157-.003906 0-.011718.003906-.019531.003906-.355469.09375-.714843.183594-1.074219.277344-.046874.007812-.089843.019531-.136718.035156-.371094.09375-.742188.1875-1.121094.277344-.007812.003906-.015625.003906-.027344.007812-.371094.089844-.742187.179688-1.113281.269531-.03125.007813-.058594.015626-.089844.023438-.371093.089844-.746093.179688-1.121093.265625-.042969.011719-.082032.019531-.125.03125-.765626.179687-1.542969.355469-2.320313.53125-6.976563 1.5625-14.503906 2.914063-22.441406 4.066406-.40625.058594-.808594.117188-1.210938.171875-.160156.023438-.320312.046875-.480469.066406-.902343.128907-1.804687.25-2.714843.371094-.011719.003906-.027344.003906-.039063.007813-14.492187 1.921875-30.207031 3.175781-46.296875 3.769531-14.351562.527344-29.003906.527344-43.359375 0-14.507812-.535156-28.707031-1.609375-41.984375-3.222656-.007812-.003906-.019531-.003906-.03125-.003906-.980469-.121094-1.953125-.242188-2.917969-.367188 0 0 0 0-.003906 0-.476562-.0625-.953125-.125-1.421875-.183594l-.074219-.011718c-.921874-.125-1.835937-.25-2.746093-.375-.039063-.003907-.070313-.011719-.105469-.015626h-.019531c-.464844-.066406-.933594-.132812-1.398438-.203124-7.933593-1.144532-15.460937-2.5-22.433593-4.058594-.792969-.179688-1.578126-.359375-2.355469-.542969-.050781-.011719-.101563-.023437-.152344-.035156-.367187-.085938-.738281-.171875-1.101563-.261719-.039062-.007812-.078124-.019531-.117187-.027344-.335937-.082031-.671875-.164062-1.007813-.246094-.050781-.011718-.101562-.027343-.152343-.039062-.359375-.085938-.714844-.175781-1.070313-.265625-.050781-.015625-.101562-.027344-.15625-.042969-.351562-.085937-.699218-.175781-1.042968-.265625-.019532-.003906-.035157-.007812-.050782-.011719-.339844-.089843-.679687-.179687-1.015625-.269531-.078125-.019531-.15625-.042969-.234375-.0625-.332031-.085937-.660156-.175781-.984375-.265625-.070312-.019531-.136719-.039062-.203125-.054687-.277344-.078125-.550781-.152344-.824218-.230469-.082032-.019531-.164063-.042969-.242188-.066406-.3125-.089844-.621094-.175782-.925781-.261719-.09375-.027344-.183594-.050781-.273438-.078125-.28125-.082031-.5625-.164062-.839843-.246094-.066407-.019531-.132813-.039062-.199219-.058594-.277344-.082031-.554688-.164062-.828125-.246093-.105469-.035157-.207032-.066407-.3125-.097657-.289063-.089843-.582032-.175781-.867188-.265624-.082031-.027344-.160156-.050782-.242187-.078126-.234375-.074218-.46875-.144531-.703125-.21875-.097656-.03125-.191406-.0625-.285156-.09375-.273438-.085937-.542969-.171874-.8125-.261718-.113282-.035156-.222657-.070313-.335938-.109375-.230469-.078125-.457031-.152344-.6875-.230469-.054688-.015625-.105469-.035156-.15625-.050781-.96875-.328125-1.933594-.476563-2.871094-.476563-2.949218.011719-5.601562 1.542969-7.207031 3.832032-.058594.085937-.117187.171874-.171875.257812-.058594.085938-.113281.175781-.167969.265625-.109375.183594-.210937.367187-.308593.558594-.054688.109375-.109376.21875-.160157.332031-.496093 1.085938-.777343 2.285156-.785156 3.535156v.023438c0 .207031.007813.417968.019531.625.054688.738281.199219 1.488281.453125 2.242187.015625.050781.03125.097657.046875.148438.082032.242187.164063.484375.242188.726562.035156.09375.0625.1875.09375.285157.097656.28125.1875.570312.28125.855468.023437.078125.046875.152344.070312.230469.082032.246094.160156.496094.238282.75.023437.078125.046874.15625.070312.234375.089844.296875.183594.597656.277344.898438.023437.078124.042968.15625.070312.230468.089844.296875.179688.597656.265625.894532.019531.058593.035157.121093.050781.175781.085938.292969.171876.585937.257813.882812.019531.070313.042969.144531.0625.210938.089844.316406.179687.636719.269531.957031.023438.078125.042969.152344.066406.230469.082032.296875.164063.589843.246094.886719.011719.042968.019532.082031.035156.125.09375.347656.1875.699218.28125 1.050781.011719.046875.023438.089843.035157.132812.191406.71875.378906 1.4375.566406 2.167969.011719.054688.023437.105469.039063.15625.09375.367188.1875.738281.277343 1.109375.003907.007813.003907.019531.007813.027344.09375.386719.1875.777343.285156 1.167969.003906.007812.003906.011718.003906.015624.09375.382813.183594.769532.277344 1.160157.007812.03125.015625.0625.023438.097656.179687.769531.359374 1.546875.535156 2.332031 1.570312 7.007813 2.929687 14.578125 4.082031 22.554688.058594.398437.113281.796875.171875 1.195312.011719.109375.027344.214844.042969.324219.121093.84375.234375 1.691406.347656 2.542969.019531.136718.039063.277344.058594.414062.054687.402344.105469.808594.15625 1.210938.011719.085937.023437.171875.03125.257812.042969.332032.085937.667969.128906 1 .003906.023438.007813.042969.007813.066406.042968.328126.082031.652344.121093.980469.007813.050781.015625.101563.019531.152344.042969.347656.085938.695313.125 1.042969.007813.078125.019532.152344.027344.222656.035156.285156.066406.566406.101563.851562.011719.09375.023437.191407.035156.285157.03125.269531.0625.542969.09375.8125.011719.121093.027344.246093.042969.371093.082031.71875.160156 1.4375.242187 2.160157.007813.097656.019531.203125.03125.300781.03125.289062.0625.582031.09375.871094.007813.078125.015625.15625.023438.234375.042969.425781.089843.851562.132812 1.277343-.046875-.445312-.089843-.890624-.140625-1.335937.144532 1.359375.285156 2.726563.417969 4.101563v.015624c.980469 10.09375 1.664063 20.601563 2.058594 31.273438.527343 14.351562.527343 29.003906 0 43.359375-.378907 10.183594-1.015625 20.214844-1.925781 29.882813 0 .015624-.003907.035156-.003907.054687-.019531.207031-.042969.414063-.058593.617187-.15625 1.621094-.316407 3.234376-.488282 4.832032v.007812c-.191406 1.8125-.394531 3.605469-.605468 5.390625 0 .003907 0 .007813-.003907.011719-.050781.414062-.097656.828125-.148437 1.242188-.007813.042968-.011719.085937-.015625.128906-.105469.847656-.210938 1.691406-.320313 2.535156-.007812.074219-.019531.152344-.027344.226562-.054687.421876-.109374.84375-.164062 1.261719-.011719.09375-.027344.191407-.039062.285157-.058594.429687-.117188.859374-.175782 1.292968 0 .011719-.003906.023438-.003906.035156-.058594.4375-.121094.875-.183594 1.3125-.015625.109376-.027344.21875-.042968.328126-.058594.398437-.117188.796874-.171876 1.195312-1.148437 7.957031-2.507812 15.503906-4.070312 22.5-.179688.800781-.363281 1.59375-.546875 2.382812-.003906.027344-.011719.058594-.019531.085938-.179688.773438-.367188 1.539062-.554688 2.296875-.007812.035156-.015625.070313-.023437.105469-.089844.367187-.183594.726562-.273438 1.089844-.011719.046874-.023437.09375-.035156.136718-.183594.726563-.367187 1.445313-.558594 2.15625-.015625.0625-.03125.121094-.046875.179688-.089844.339844-.179687.675781-.273437 1.011718-.015625.058594-.03125.121094-.050781.179688-.078126.289062-.15625.570312-.234376.855469-.019531.074219-.039062.148437-.0625.21875-.089843.316406-.179687.628906-.269531.941406-.023437.085937-.046875.167969-.070312.253906-.085938.289063-.171875.582031-.257813.875-.011718.046875-.027344.09375-.039062.140625-.089844.300782-.179688.597656-.269532.894532-.027343.089843-.054687.179687-.082031.269531-.089843.296875-.183593.59375-.273437.886719-.019532.074218-.042969.148437-.066406.21875-.078126.246093-.15625.492187-.230469.734374-.03125.089844-.058594.179688-.085938.265626-.085937.28125-.175781.554687-.265625.828124-.035156.105469-.070312.210938-.105468.316407-.078126.246093-.160157.488281-.242188.726562-.011719.042969-.027344.089844-.042969.128907-.324219.972656-.476562 1.933593-.472656 2.871093.007813 2.949219 1.539063 5.601563 3.832031 7.207031.082032.058594.167969.117188.253906.171876.085938.058593.175782.117187.269532.167968.183594.113282.367187.214844.554687.308594.109375.058594.21875.109375.332031.160156 1 .457032 2.097657.734375 3.246094.777344 1.03125.042969 2.101563-.101562 3.179688-.464844.070312-.023437.144531-.046875.21875-.070312.203125-.070313.414062-.140625.621094-.210938.113281-.035156.226562-.074218.339843-.109375.273438-.089843.542969-.175781.8125-.261719.097657-.035156.195313-.066406.296875-.09375.21875-.070312.4375-.140624.65625-.207031.101563-.03125.203125-.066406.300782-.09375.285156-.089843.566406-.175781.851562-.261719.097656-.03125.195312-.058593.292969-.085937.257812-.078125.519531-.15625.78125-.234375.109375-.03125.21875-.066406.328125-.097656.257812-.074219.511718-.152344.769531-.226563.09375-.023437.1875-.054687.277344-.078125.304687-.089844.617187-.175781.925781-.261718.082031-.023438.160156-.046876.242188-.070313.273437-.074219.546874-.152344.824218-.226563.066406-.019531.136719-.039062.203125-.054687.332031-.089844.664063-.179687.996094-.269531.066406-.019532.136719-.035156.207031-.054688.34375-.089844.6875-.179687 1.035156-.273437.015626-.003907.035157-.007813.054688-.015625.328125-.085938.660156-.167969.992188-.253906.074218-.019532.152343-.039063.230468-.058594.347656-.085938.695313-.171875 1.042969-.257813.042969-.011719.085937-.023437.128906-.035156.367188-.089844.730469-.179687 1.101563-.265625.007812-.003906.011718-.003906.019531-.003906.367187-.089844.742187-.179688 1.117187-.265625l.1875-.046875c.371094-.085938.738282-.171875 1.113282-.257813.011718 0 .019531-.003906.03125-.007812.375-.085938.753906-.167969 1.132812-.253907 6.976563-1.5625 14.507813-2.921874 22.445313-4.070312.398437-.058594.796875-.113281 1.195312-.167969.105469-.015625.214844-.03125.320313-.042969.382812-.054687.769531-.109374 1.15625-.164062.222656-.03125.445312-.058594.664062-.089844.25-.035156.5-.066406.753906-.101562.117188-.015625.234376-.03125.351563-.046875h.003906c2.71875-.359375 5.476563-.699219 8.277344-1.011719 12.121094-1.359375 24.949219-2.28125 38.023437-2.761719 14.355469-.53125 29.007813-.53125 43.359376 0 6.519531.238281 12.976562.589844 19.3125 1.046875.046874.003906.09375.007813.140624.011719.898438.066406 1.792969.132813 2.6875.203125.109376.007812.21875.015625.328126.023438.402343.03125.800781.066406 1.199218.097656.054688.003906.109375.007812.164063.011718.40625.035157.816406.066407 1.222656.101563.105469.007813.210937.019531.3125.027344.425781.035156.851563.070312 1.277344.109375.019531 0 .039062.003906.058593.003906.390626.035156.777344.070312 1.167969.105469.144531.011719.285157.027343.429688.039062.316406.027344.632812.058594.945312.085938.210938.019531.421875.039062.632813.0625.273437.023437.550781.050781.824218.078125.164063.015625.324219.03125.488282.042968.304687.03125.613281.0625.917968.089844.21875.023438.441407.046875.664063.066406.246094.023438.488281.050782.730469.074219.175781.019531.347656.035157.519531.050781.296875.035157.59375.0625.886719.09375.269531.027344.535156.054688.800781.085938.160156.015625.324219.035156.484375.050781.238281.027344.46875.050781.707031.074219.167969.019531.335938.039062.503907.058594.414062.042968.824218.089844 1.238281.136718.074219.011719.152343.019532.230469.027344.863281.097656 1.726562.199219 2.585937.304688.035156.003906.074219.007812.109375.011718.878906.105469 1.75.214844 2.621094.328126l.085937.007812c.746094.09375 1.488281.191406 2.226563.289062.402344.054688.804687.109376 1.207031.164063.058594.007813.113281.015625.171875.023437.347656.046876.699219.09375 1.050781.144532.214844.027344.429688.058594.644531.089844.359376.050781.722657.101562 1.078126.15625 7.972656 1.152343 15.53125 2.507812 22.53125 4.078124.378906.085938.761718.167969 1.136718.257813.011719 0 .023438.003906.035156.007813.375.085937.75.171874 1.125.257812.054688.011719.109376.027344.160157.039062.746093.175782 1.488281.355469 2.222656.535157.054687.015625.113281.027343.171875.042969.34375.085937.6875.171874 1.03125.257812.070312.019531.144531.039062.214844.054688.34375.085937.6875.175781 1.027344.265624.007812 0 .015624.003907.023437.003907.34375.089843.683594.179687 1.019531.269531.085938.019531.171875.042969.253906.066406.320313.085938.636719.171875.953126.257813.085937.023437.175781.046875.265624.074219.246094.066406.492188.132812.738282.203124.101562.027344.199218.058594.300781.085938.292969.082031.589844.167969.882813.25.109374.03125.214843.0625.320312.09375.253906.074219.507812.148438.757812.21875.105469.03125.207032.0625.308594.089844.257813.078125.515625.15625.773438.234375.113281.03125.222656.066406.332031.097656.28125.085937.558594.171875.835937.257813.09375.03125.191407.058593.285157.089843.230469.070313.457031.144531.683593.214844.089844.03125.179688.058594.273438.089844.277344.085937.550781.175781.824219.265625.105469.035156.210937.070312.316406.105468.246094.078126.488281.160157.726563.242188.042968.011719.089843.027344.128906.042969 1.074218.359375 2.140625.503906 3.167968.464843h.011719c2.824219-.113281 5.351563-1.613281 6.898438-3.828124.058593-.082032.117187-.167969.171875-.253907.058594-.085937.113281-.175781.167968-.265625.109376-.183594.210938-.367187.308594-.558594.054688-.109374.109375-.21875.160156-.332031.199219-.433593.363282-.886719.488282-1.359375.015625-.050781.027344-.097656.039062-.148437.042969-.171875.082032-.34375.117188-.519531.035156-.199219.0625-.402344.085937-.601563.011719-.101563.019531-.207031.027344-.308594.085937-1.125-.050781-2.300781-.445313-3.488281-.035156-.082031-.058593-.144531-.078124-.210938zm-235.003907-88.386718c0 .027344 0 .050781-.003906.078125.015625-.386719.03125-.769531.046875-1.15625-.015625.359375-.027344.722656-.042969 1.078125zm-.015625.300781c-.011718.273437-.023437.546875-.035156.824219.011719-.292969.027344-.585938.039062-.878906 0 .015624 0 .035156-.003906.054687zm-.113281 2.570313v.035156c.007813-.195313.015625-.394532.023437-.589844-.003906.183594-.015624.367188-.023437.554688zm-.015625.367187c-.003906.121094-.011719.242187-.015625.359375.003906-.125.011719-.253906.015625-.382812zm-.128906 2.601563v.003906l.003906-.101563c-.003906.035157-.003906.066407-.003906.097657zm-.015625.253906c-.011719.21875-.019531.429687-.03125.648437.011719-.21875.023437-.433593.035156-.652343-.003906 0-.003906.003906-.003906.003906zm-.140625 2.597656c-.003906.019531-.003906.039062-.003906.054688.023437-.375.042968-.753907.0625-1.132813-.019532.363281-.039063.71875-.058594 1.078125zm-.019532.320312c-.023437.371094-.042968.742188-.066406 1.109376-.003906.03125-.003906.058593-.007812.089843.027344-.421875.050781-.84375.074218-1.265625.003907.023438 0 .046875 0 .066406zm-.078124 1.300782c-.023438.441406-.050782.886718-.082032 1.328125v.015625c.027344-.457032.058594-.910156.082032-1.367188zm-.089844 1.472656c0 .027344-.003906.050781-.003906.074219.003906-.027344.003906-.054688.007812-.082031-.003906 0-.003906.003906-.003906.007812zm.515625-62.898438c.007812.117188.011719.230469.019531.347657-.015625-.289063-.027344-.574219-.042969-.859375.003907.097656.011719.195312.015625.292968 0 .074219.003906.148438.007813.21875zm.0625 1.339844c.003906.125.007812.25.015625.375-.011719-.292968-.027344-.589844-.039063-.878906.003907.046875.003907.09375.007813.144531.003906.117188.007812.238281.015625.359375zm.046875 1.136719c.007812.222656.019531.445313.027344.664063-.011719-.285157-.023438-.570313-.035157-.855469v.011719c.003907.058593.003907.121093.007813.179687zm-1.78125-26.851563c.011718.136719.027344.273438.039062.410157.011719.109375.019532.21875.03125.328125-.035156-.367188-.070312-.734375-.101562-1.101563.007812.121094.019531.242188.03125.363281zm.105468 1.144532c.011719.136718.023438.269531.035157.402344.015625.175781.03125.347656.046875.523437-.03125-.367187-.066406-.738281-.097656-1.105469.003906.0625.011718.121094.015624.179688zm.125 1.390625c0 .023437.003907.050781.003907.074219.027343.3125.054687.625.082031.9375-.035156-.398438-.070312-.796876-.105469-1.195313.007813.0625.015625.121094.019531.183594zm.109376 1.292969c.003906.015624.003906.035156.003906.050781.035156.375.0625.746093.097656 1.121093v.015626c-.035156-.445313-.074219-.890626-.113281-1.332032.003906.046875.007812.097656.011719.144532zm.117187 1.40625c.023437.285156.046875.574218.070313.863281.011718.125.019531.246093.03125.371093.023437.320313.050781.644532.074218.964844.011719.140625.023438.285156.03125.425782-.070312-.917969-.140625-1.828126-.214844-2.738282.003907.035156.007813.074219.007813.113282zm.273437 3.480468c.011719.128906.019532.257813.03125.386719 0 .023437.003907.042969.003907.066406-.03125-.425781-.0625-.851562-.097657-1.273437.023438.269531.042969.542968.0625.820312zm.085938 1.179688c.007812.113281.019531.230468.027344.347656.007812.097656.015625.199219.023437.296875-.027343-.351563-.050781-.703125-.078125-1.050781.011719.136718.019532.269531.027344.40625zm.191406 2.695312c.003906.070313.011719.136719.015625.207032.011719.171874.019531.34375.03125.515624-.019531-.34375-.046875-.683593-.066406-1.027343.003906.101562.011719.203125.019531.304687zm-.046875-.703125c-.023437-.332031-.046875-.667969-.070312-1 .023437.335938.046875.667969.070312 1zm.125 1.878907c.003907.101562.015625.203124.019531.300781.015626.226562.03125.453125.042969.675781-.023437-.363281-.042969-.730469-.070312-1.09375 0 .039062.003906.082031.007812.117188zm.082031 1.269531c.003907.070312.007813.140625.015626.210937.015624.304688.035156.605469.054687.914063-.023437-.378907-.046875-.757813-.070313-1.132813-.003906 0-.003906.003906 0 .007813zm.101563 1.671875c.019531.289062.035156.578125.050781.867187.003906.027344.003906.050781.003906.078125-.019531-.371094-.042968-.746094-.066406-1.117187.003906.054687.007813.113281.011719.171875zm.132813 2.304687v.046875c.003906.035156.003906.074219.007812.109375-.019531-.367187-.042969-.738281-.0625-1.105469.019531.316407.035156.632813.054688.949219zm.070312 1.269531c.003906.074219.007812.144532.011719.21875v.046876c-.015625-.3125-.03125-.625-.046875-.933594.011718.21875.023437.445312.035156.667968zm.058594 1.171876c.007812.132812.015625.265624.019531.394531.003906.046875.003906.09375.007813.140625-.015626-.324219-.03125-.648438-.050782-.972656.011719.148437.015625.292968.023438.4375zm.058594 1.15625c.007812.140624.015624.285156.019531.429687.003906.089844.007812.183594.015625.273437-.015625-.3125-.03125-.628906-.046875-.941406zm-1.9375-26.226563c.003906.042969.007812.085937.011718.128906.007813.058594.011719.113281.019532.167969-.042969-.394531-.082032-.792969-.125-1.191406.03125.296875.0625.59375.09375.894531zm.046874.484375c.019532.203125.039063.402344.058594.609375.011719.109375.023438.222656.035156.332031.007813.078125.011719.152344.019532.230469-.035156-.390625-.074219-.785156-.113282-1.171875zm.179688 1.839844c.007812.070312.015625.140625.019531.210937.015625.144531.027344.285157.042969.425781-.039062-.371093-.070312-.742187-.109375-1.113281.019531.160157.03125.316407.046875.476563zm1.949219 29.292968c.015625.441407.035156.878907.050781 1.320313v.007813c-.015625-.441407-.035156-.882813-.050781-1.328126zm0 0" fill="#382b73"/><path d="m351.796875 362.992188c-54.757813-18.429688-171.234375-18.429688-225.992187 0-6.898438 2.324218-13.519532-4.296876-11.195313-11.195313 18.429687-54.757813 18.429687-171.234375 0-225.992187-2.324219-6.898438 4.296875-13.519532 11.195313-11.195313 54.757812 18.429687 171.234374 18.429687 225.992187 0 6.898437-2.324219 13.519531 4.296875 11.195313 11.195313-18.429688 54.757812-18.429688 171.234374 0 225.992187 2.324218 6.898437-4.296876 13.519531-11.195313 11.195313zm0 0" fill="#d1d3d4"/><path d="m333.597656 119.59375c.785156 1.855469.953125 4.019531.214844 6.207031-18.429688 54.761719-18.429688 171.234375 0 225.996094.738281 2.1875.570312 4.351563-.214844 6.210937 6.601563 1.472657 12.710938 3.136719 18.199219 4.984376 6.898437 2.320312 13.519531-4.296876 11.195313-11.195313-18.429688-54.761719-18.429688-171.234375 0-225.996094 2.324218-6.898437-4.296876-13.515625-11.195313-11.195312-5.488281 1.847656-11.597656 3.511719-18.199219 4.988281zm0 0" fill="#e6e7e8"/><path d="m349.566406 260.480469c.65625 17.761719 2.121094 35.0625 4.394532 50.773437-2.273438-15.710937-3.738282-33.011718-4.394532-50.773437zm0 0" fill="#fede3a"/><path d="m349.566406 217.121094c.65625-17.761719 2.121094-35.066406 4.394532-50.773438-2.273438 15.707032-3.738282 33.011719-4.394532 50.773438zm0 0" fill="#fede3a"/><path d="m349.566406 217.121094c.652344-17.761719 2.121094-35.066406 4.394532-50.773438-.710938.03125-1.4375.117188-2.164063.261719-8.011719 1.566406-17.34375 2.902344-27.609375 4.011719-1.988281 14.910156-3.265625 31.117187-3.84375 47.703125 10.828125-.328125 20.710938-.726563 29.222656-1.203125zm0 0" fill="#f7cb15"/><path d="m353.960938 311.253906c-2.273438-15.710937-3.738282-33.011718-4.394532-50.773437-8.515625-.476563-18.398437-.875-29.222656-1.207031.574219 16.585937 1.855469 32.792968 3.839844 47.703124 10.269531 1.109376 19.601562 2.449219 27.613281 4.015626.730469.140624 1.453125.226562 2.164063.261718zm0 0" fill="#f7cb15"/><path d="m144.003906 358.007812c-.789062-1.859374-.953125-4.019531-.214844-6.210937 18.429688-54.757813 18.429688-171.234375 0-225.992187-.738281-2.191407-.574218-4.355469.214844-6.210938-6.605468-1.476562-12.714844-3.136719-18.203125-4.984375-6.898437-2.324219-13.515625 4.296875-11.195312 11.195313 18.429687 54.757812 18.429687 171.234374 0 225.992187-2.320313 6.898437 4.296875 13.519531 11.195312 11.195313 5.488281-1.847657 11.597657-3.507813 18.203125-4.984376zm0 0" fill="#e6e7e8"/><g fill="#fede3a"><path d="m124.25 306.859375c-.125.945313-.253906 1.882813-.382812 2.816406.128906-.933593.257812-1.875.382812-2.816406zm0 0"/><path d="m128.03125 260.480469c-.570312 15.53125-1.761719 30.710937-3.574219 44.78125 1.8125-14.070313 3.003907-29.25 3.574219-44.78125zm0 0"/><path d="m123.84375 309.835938c-.066406.453124-.128906.902343-.195312 1.351562.066406-.449219.128906-.898438.195312-1.351562zm0 0"/><path d="m320.34375 259.273438c-48.140625-1.457032-114.949219-1.457032-163.085938 0-.578124 16.585937-1.859374 32.792968-3.84375 47.703124 49.640626-5.359374 121.128907-5.359374 170.769532 0-1.984375-14.90625-3.265625-31.113281-3.839844-47.703124zm0 0"/><path d="m124.453125 305.304688c-.0625.480468-.125.960937-.1875 1.4375.0625-.476563.125-.953126.1875-1.4375zm0 0"/><path d="m123.839844 167.757812c-.0625-.449218-.125-.894531-.191406-1.339843.066406.445312.128906.890625.191406 1.339843zm0 0"/><path d="m128.03125 217.121094c-.570312-15.527344-1.761719-30.707032-3.570312-44.773438 1.808593 14.066406 3 29.246094 3.570312 44.773438zm0 0"/><path d="m124.453125 172.285156c-.0625-.476562-.125-.949218-.1875-1.421875.0625.472657.125.945313.1875 1.421875zm0 0"/><path d="m124.246094 170.730469c-.121094-.9375-.25-1.867188-.378906-2.792969.128906.925781.257812 1.855469.378906 2.792969zm0 0"/><path d="m153.414062 170.621094c1.984376 14.910156 3.265626 31.117187 3.84375 47.703125 48.136719 1.460937 114.945313 1.460937 163.085938 0 .574219-16.585938 1.855469-32.792969 3.839844-47.703125-49.640625 5.359375-121.128906 5.359375-170.769532 0zm0 0"/></g><path d="m153.414062 170.621094c-10.269531-1.105469-19.601562-2.445313-27.613281-4.011719-.726562-.144531-1.449219-.226563-2.160156-.261719.003906.023438.003906.046875.007813.070313.066406.445312.128906.890625.195312 1.339843.007812.058594.015625.117188.023438.179688.128906.921875.253906 1.851562.378906 2.785156.007812.050782.015625.097656.019531.148438.0625.46875.125.9375.183594 1.410156.003906.023438.007812.050781.011719.078125.191406 1.492187.375 2.992187.554687 4.507813v.011718c1.5 12.773438 2.503906 26.367188 3.015625 40.242188 8.515625.476562 18.398438.875 29.226562 1.203125-.578124-16.585938-1.859374-32.792969-3.84375-47.703125zm0 0" fill="#f7cb15"/><path d="m128.03125 260.480469c-.570312 15.527343-1.761719 30.707031-3.574219 44.773437 0 .019532-.003906.039063-.007812.058594-.0625.476562-.125.949219-.183594 1.421875-.007813.046875-.011719.089844-.019531.132813-.125.941406-.253906 1.875-.382813 2.808593-.007812.050781-.015625.105469-.023437.160157-.0625.453124-.128906.902343-.191406 1.351562-.003907.019531-.007813.039062-.011719.0625.714843-.03125 1.4375-.117188 2.164062-.261719 8.011719-1.566406 17.34375-2.902343 27.609375-4.011719 1.988282-14.910156 3.269532-31.117187 3.84375-47.703124-10.824218.332031-20.707031.730468-29.222656 1.207031zm0 0" fill="#f7cb15"/><path d="m119.59375 144.003906c1.855469-.789062 4.015625-.953125 6.207031-.214844 54.761719 18.429688 171.234375 18.429688 225.996094 0 2.1875-.738281 4.351563-.574218 6.210937.214844 1.472657-6.605468 3.136719-12.714844 4.984376-18.203125 2.320312-6.898437-4.296876-13.515625-11.195313-11.195312-54.761719 18.429687-171.234375 18.429687-225.996094 0-6.898437-2.320313-13.515625 4.296875-11.195312 11.195312 1.847656 5.492188 3.511719 11.597657 4.988281 18.203125zm0 0" fill="#fff"/><path d="m311.222656 123.644531c-.472656.066407-.945312.136719-1.421875.203125.476563-.066406.949219-.136718 1.421875-.203125zm0 0" fill="#ef5a9d"/><path d="m306.773438 124.261719c-14.488282 1.921875-30.203126 3.179687-46.292969 3.769531v.003906c16.089843-.59375 31.804687-1.851562 46.292969-3.773437zm0 0" fill="#ef5a9d"/><path d="m306.816406 124.253906c.976563-.128906 1.949219-.261718 2.910156-.398437-.960937.136719-1.933593.269531-2.910156.398437zm0 0" fill="#ef5a9d"/><path d="m217.121094 128.035156c-17.203125-.636718-33.972656-2.027344-49.277344-4.179687 15.304688 2.152343 32.078125 3.542969 49.277344 4.179687zm0 0" fill="#ef5a9d"/><path d="m166.355469 123.640625c.488281.070313.972656.140625 1.460937.207031-.488281-.066406-.972656-.136718-1.460937-.207031zm0 0" fill="#ef5a9d"/><path d="m309.726562 123.859375c-.960937.132813-1.933593.265625-2.910156.398437-.011718 0-.027344.003907-.039062.003907-14.492188 1.921875-30.207032 3.179687-46.296875 3.773437-.472657 8.515625-.875 18.398438-1.203125 29.226563 16.585937-.578125 32.792968-1.859375 47.703125-3.84375 1.109375-10.269531 2.445312-19.601563 4.011719-27.613281.144531-.726563.226562-1.449219.261718-2.160157-.011718 0-.023437 0-.03125.003907-.46875.066406-.941406.136718-1.417968.203124-.027344 0-.050782.003907-.078126.007813zm0 0" fill="#f06ea9"/><path d="m217.121094 128.035156c-17.203125-.636718-33.972656-2.027344-49.277344-4.179687l-.027344-.003907c-.488281-.070312-.972656-.140624-1.457031-.210937h-.007813c.03125.710937.113282 1.433594.257813 2.160156 1.570313 8.011719 2.90625 17.34375 4.015625 27.613281 14.90625 1.984376 31.117188 3.265626 47.703125 3.84375-.332031-10.828124-.730469-20.710937-1.207031-29.222656zm0 0" fill="#f06ea9"/><path d="m358.007812 333.597656c-1.859374.785156-4.019531.953125-6.210937.214844-54.757813-18.429688-171.234375-18.429688-225.992187 0-2.191407.738281-4.355469.570312-6.210938-.214844-1.476562 6.601563-3.136719 12.710938-4.984375 18.199219-2.324219 6.898437 4.296875 13.519531 11.195313 11.195313 54.757812-18.429688 171.234374-18.429688 225.992187 0 6.898437 2.324218 13.519531-4.296876 11.195313-11.195313-1.847657-5.488281-3.507813-11.597656-4.984376-18.199219zm0 0" fill="#bcbec0"/><path d="m166.371094 353.957031c.476562-.070312.953125-.136719 1.429687-.203125-.476562.066406-.953125.132813-1.429687.203125zm0 0" fill="#ef5a9d"/><path d="m170.621094 324.1875c14.910156-1.988281 31.117187-3.265625 47.703125-3.84375 1.460937-48.136719 1.460937-114.945312 0-163.085938-16.585938-.574218-32.792969-1.859374-47.703125-3.84375 5.359375 49.640626 5.359375 121.128907 0 170.773438zm0 0" fill="#ef5a9d"/><path d="m170.792969 353.34375c-.984375.128906-1.957031.265625-2.929688.398438.972657-.132813 1.945313-.269532 2.929688-.398438zm0 0" fill="#ef5a9d"/><path d="m170.816406 353.339844c14.496094-1.921875 30.210938-3.179688 46.304688-3.773438-16.09375.59375-31.808594 1.851563-46.304688 3.773438zm0 0" fill="#ef5a9d"/><path d="m306.976562 324.1875c-5.359374-49.644531-5.359374-121.128906 0-170.773438-14.90625 1.988282-31.117187 3.269532-47.703124 3.84375-1.457032 48.140626-1.457032 114.945313 0 163.085938 16.589843.574219 32.796874 1.855469 47.703124 3.84375zm0 0" fill="#ef5a9d"/><path d="m311.234375 353.957031c-.476563-.070312-.960937-.136719-1.445313-.207031.484376.070312.96875.136719 1.445313.207031zm0 0" fill="#ef5a9d"/><path d="m260.480469 349.566406c16.09375.59375 31.8125 1.851563 46.308593 3.773438-14.496093-1.921875-30.214843-3.179688-46.308593-3.773438zm0 0" fill="#ef5a9d"/><path d="m306.796875 353.34375c.988281.128906 1.972656.265625 2.949219.398438-.972656-.132813-1.957032-.269532-2.949219-.398438zm0 0" fill="#ef5a9d"/><path d="m260.480469 349.566406c16.09375.59375 31.8125 1.851563 46.308593 3.773438.003907.003906.003907.003906.007813.003906.988281.128906 1.972656.265625 2.949219.398438.015625.003906.03125.003906.042968.007812.484376.066406.96875.136719 1.445313.207031l.015625.003907c-.03125-.714844-.117188-1.4375-.257812-2.164063-1.566407-8.011719-2.90625-17.34375-4.015626-27.609375-14.90625-1.988281-31.117187-3.265625-47.703124-3.84375.328124 10.828125.730468 20.710938 1.207031 29.222656zm0 0" fill="#a72973"/><path d="m218.324219 320.34375c-16.585938.574219-32.792969 1.855469-47.703125 3.839844-1.105469 10.269531-2.445313 19.601562-4.011719 27.613281-.144531.726563-.226563 1.449219-.261719 2.160156h.023438c.476562-.070312.953125-.140625 1.429687-.207031.019531-.003906.042969-.003906.058594-.007812.972656-.136719 1.949219-.269532 2.929687-.398438.007813-.003906.019532-.003906.027344-.003906 14.492188-1.925782 30.207032-3.183594 46.300782-3.777344.480468-8.507812.878906-18.390625 1.207031-29.21875zm0 0" fill="#a72973"/></svg>