<?xml version="1.0" encoding="utf-8"?>
<!-- Generator: Adobe Illustrator 18.1.1, SVG Export Plug-In . SVG Version: 6.00 Build 0)  -->
<!DOCTYPE svg PUBLIC "-//W3C//DTD SVG 1.1//EN" "http://www.w3.org/Graphics/SVG/1.1/DTD/svg11.dtd">
<svg version="1.1" id="Layer_1" xmlns="http://www.w3.org/2000/svg" xmlns:xlink="http://www.w3.org/1999/xlink" x="0px" y="0px"
	 viewBox="0 0 176 178.7" enable-background="new 0 0 176 178.7" xml:space="preserve">
<circle fill="none" stroke="#303030" stroke-miterlimit="10" cx="88.3" cy="89.1" r="84.6"/>
<g>
	<path fill="#303030" d="M52.1,84.3c0.3-1.7,0.3-2.9-0.2-3.4c-0.5-0.6-1.5-0.9-2.9-1.1c-0.1-0.3-0.1-0.7-0.1-1.1
		c0-0.4,0-0.8,0.1-1.2c1.9,0.1,4,0.2,6.1,0.2c2.1,0,4.3-0.1,6.3-0.2c0,0.4-0.1,0.8-0.1,1.2c-0.1,0.4-0.2,0.7-0.3,1.1
		c-0.7,0.1-1.2,0.2-1.7,0.4c-0.5,0.2-0.8,0.4-1.1,0.8c-0.3,0.3-0.5,0.8-0.8,1.3c-0.2,0.5-0.4,1.2-0.5,2.1l-2.4,12.8
		c-0.2,0.9-0.3,1.6-0.2,2.2c0,0.5,0.1,1,0.4,1.3c0.2,0.3,0.6,0.6,1.1,0.7c0.5,0.1,1.1,0.3,1.9,0.4c0.2,0.7,0.2,1.4,0.1,2.2
		c-2.1-0.1-4.2-0.2-6.3-0.2c-1,0-2.1,0-3.2,0c-1.1,0-2.1,0.1-3,0.1c0-0.9,0.1-1.6,0.4-2.2c0.7-0.1,1.3-0.2,1.7-0.3
		c0.5-0.2,0.8-0.4,1.1-0.7c0.3-0.3,0.5-0.8,0.7-1.3c0.2-0.5,0.4-1.3,0.5-2.2L52.1,84.3z"/>
	<path fill="#303030" d="M75,77.3c1.9,0,3.5,0.4,4.9,1.1c1.4,0.7,2.4,1.7,3.2,3c0.8,1.3,1.3,2.9,1.5,4.8c0.2,1.9,0.1,4-0.4,6.3
		c-0.6,2.8-1.5,5.5-2.9,7.9s-3.1,4.5-5.2,6.2c-2,1.8-4.4,3.2-6.9,4.2c-2.6,1.1-5.3,1.7-8.2,1.8c-0.2-0.4-0.4-1-0.4-1.8
		c4.7-0.8,8.5-2.4,11.4-4.7c2.8-2.3,4.9-5.2,6.2-8.6c-1,0.7-2,1.2-3,1.4c-1,0.3-2,0.4-3.1,0.4c-3.3,0-5.7-1.1-7.1-3.3
		c-1.4-2.2-1.8-5.1-1.1-8.8c0.3-1.5,0.8-2.9,1.4-4.1c0.7-1.2,1.5-2.3,2.5-3.1c1-0.9,2.1-1.5,3.3-2C72.3,77.5,73.6,77.3,75,77.3z
		 M79.5,92.7c0.3-2,0.5-3.8,0.4-5.4c-0.1-1.6-0.3-3-0.8-4.1c-0.4-1.1-1.1-2-1.9-2.7c-0.8-0.6-1.8-0.9-2.9-0.9
		c-1.4,0-2.7,0.6-3.7,1.8c-1,1.2-1.8,2.9-2.1,5.1c-0.3,1.4-0.3,2.7-0.2,3.9c0.1,1.2,0.4,2.2,0.9,3c0.5,0.9,1,1.5,1.8,2
		c0.7,0.5,1.6,0.7,2.5,0.7c1.1,0,2.1-0.1,2.9-0.3c0.8-0.2,1.7-0.5,2.5-1C79.2,94.2,79.4,93.5,79.5,92.7z"/>
	<path fill="#303030" d="M109.2,78.2c-0.2,0.9-0.5,1.7-0.9,2.4c-0.5,0.7-1,1.4-1.6,1.9c-0.6,0.6-1.3,1.1-2.1,1.6
		c-0.8,0.5-1.5,0.9-2.3,1.3c2.3,1.9,3.8,3.8,4.5,5.6c0.7,1.8,0.8,3.8,0.3,6c-0.2,1.1-0.6,2-1.2,2.9c-0.6,0.9-1.4,1.6-2.4,2.2
		c-1,0.6-2,1.1-3.3,1.4s-2.6,0.5-4,0.5c-3.6,0-6.2-0.8-7.9-2.4c-1.7-1.6-2.2-3.9-1.6-6.9c0.4-1.9,1.3-3.5,2.7-4.9
		c1.4-1.4,3.4-2.7,5.9-3.9c-1.8-1.5-3.1-2.9-3.6-4.3c-0.6-1.4-0.7-3-0.3-4.8c0.2-0.8,0.5-1.6,1.1-2.4c0.5-0.8,1.2-1.5,2.1-2.1
		c0.9-0.6,1.9-1.1,3-1.4c1.2-0.3,2.5-0.5,3.9-0.5c3,0,5.2,0.7,6.5,2.1C109.2,74.1,109.7,76,109.2,78.2z M102.3,97.4
		c0.2-0.9,0.2-1.7,0.2-2.5c-0.1-0.8-0.3-1.6-0.6-2.3c-0.4-0.8-1-1.6-1.7-2.4c-0.8-0.8-1.8-1.7-3-2.7c-1.9,1-3.3,2-4.2,3.2
		c-0.9,1.1-1.5,2.5-1.8,4.1c-0.2,1.3-0.3,2.4-0.1,3.3c0.2,0.9,0.5,1.6,1,2.2c0.5,0.6,1.1,1,1.9,1.3c0.8,0.3,1.6,0.4,2.7,0.4
		c1.5,0,2.7-0.3,3.7-1C101.4,100.3,102,99.1,102.3,97.4z M100.4,84.1c1.2-0.7,2.2-1.5,2.9-2.3s1.2-1.9,1.5-3.1
		c0.2-1,0.2-1.8,0.1-2.6c-0.1-0.7-0.4-1.4-0.8-1.8c-0.4-0.5-0.8-0.8-1.4-1.1c-0.6-0.2-1.2-0.4-1.8-0.4c-1,0-2,0.3-2.8,1
		c-0.9,0.6-1.5,1.6-1.7,2.8c-0.1,0.6-0.2,1.2-0.2,1.8c0,0.6,0.1,1.2,0.4,1.7c0.3,0.6,0.7,1.2,1.4,1.9
		C98.5,82.6,99.3,83.3,100.4,84.1z"/>
	<path fill="#303030" d="M119.7,82.3c-0.8,0-1.4,0-1.9,0.1c-0.5,0.1-1,0.2-1.4,0.5c-0.4,0.2-0.8,0.6-1.1,1c-0.3,0.5-0.7,1-1,1.8
		c-0.9,0-1.6-0.2-2.1-0.6c0.4-1.1,0.8-2.4,1.1-3.7c0.3-1.3,0.6-2.6,0.8-3.8c0.7,0,1.5,0.1,2.4,0.1c0.8,0,1.7,0,2.5,0.1
		c0.8,0,1.6,0,2.4,0s1.5,0,2.1,0s1.2,0,1.7,0c0.5,0,1.1,0,1.7,0c0.6,0,1.2,0,1.9-0.1c0.7,0,1.5,0,2.5-0.1c0.4,0.3,0.7,0.9,0.7,1.7
		c-1.9,2.7-3.4,5-4.7,6.8c-1.3,1.9-2.3,3.4-3.2,4.8c-0.9,1.3-1.6,2.4-2.1,3.3c-0.5,0.9-1,1.7-1.4,2.5c-0.5,0.9-0.9,1.8-1.2,2.7
		c-0.3,0.9-0.6,1.8-0.8,2.8c-0.2,1-0.4,2.1-0.5,3.2c-0.1,1.2-0.3,2.5-0.4,4c-0.7,0.3-1.4,0.8-2.2,1.5c-0.8,0.6-1.4,1.2-1.8,1.8
		c-0.3-0.1-0.6-0.3-1-0.7c-0.3-0.4-0.5-1.2-0.5-2.4c0-1.3,0.2-2.7,0.6-4.1s1.2-3.2,2.3-5.3c1.1-2,2.7-4.5,4.6-7.3
		c1.9-2.8,4.4-6.3,7.4-10.4H119.7z"/>
</g>
<g>
	<path fill="#303030" d="M12.3,100.9c0.3-0.1,0.6-0.2,1-0.4c0.4-0.1,0.7-0.3,1.1-0.4s0.7-0.3,1.1-0.5c0.4-0.2,0.7-0.3,0.9-0.5
		c0.2,0.1,0.3,0.3,0.4,0.6c0.1,0.2,0.2,0.5,0.3,0.8c-0.4,0.1-0.8,0.3-1.2,0.6c-0.4,0.3-0.7,0.6-0.9,1.1c-0.2,0.5-0.4,1.1-0.4,1.8
		c0,0.7,0.1,1.6,0.3,2.7l0.6,2.4l7.5-1.8l-0.3-1.4c-0.2-0.7-0.3-1.2-0.5-1.7c-0.2-0.4-0.4-0.8-0.6-1c-0.2-0.2-0.5-0.4-0.8-0.5
		c-0.3-0.1-0.7,0-1.1,0.1c-0.1-0.3-0.3-0.5-0.3-0.7c-0.1-0.2-0.2-0.5-0.2-0.8c0.5-0.1,1-0.2,1.5-0.3l3-0.7c0.6-0.1,1.1-0.3,1.6-0.4
		c0.1,0.3,0.1,0.6,0.2,0.8c0,0.2,0.1,0.5,0.1,0.7c-0.5,0.2-0.8,0.3-1.1,0.6c-0.3,0.2-0.5,0.5-0.6,0.8c-0.1,0.3-0.2,0.7-0.1,1.2
		c0,0.5,0.1,1,0.3,1.7l0.3,1.4l4.9-1.2c0.5-0.1,0.9-0.3,1.2-0.4c0.3-0.2,0.5-0.4,0.7-0.6c0.1-0.3,0.2-0.6,0.2-1
		c0-0.4-0.1-0.9-0.3-1.5l0-0.2c-0.2-1-0.5-1.8-0.8-2.4c-0.3-0.6-0.6-1.1-1-1.4c-0.4-0.3-0.8-0.6-1.3-0.7c-0.5-0.1-1-0.3-1.7-0.4
		c0-0.3,0-0.6,0.1-0.9c0-0.2,0.1-0.5,0.2-0.7c0.7,0.1,1.4,0.1,2.2,0.1c0.8,0,1.5,0,2.1-0.1c0.1,0.3,0.2,0.7,0.3,1.2
		c0.1,0.5,0.2,1,0.3,1.6c0.1,0.6,0.3,1.2,0.4,1.8l1,4c0.2,0.8,0.4,1.6,0.6,2.4c0.2,0.8,0.4,1.5,0.6,2.2c0.2,0.7,0.3,1.3,0.4,1.7
		c-0.5,0.1-0.9,0.2-1.2,0.1c-0.1-0.4-0.3-0.8-0.4-1.1c-0.2-0.3-0.4-0.5-0.6-0.6c-0.2-0.1-0.5-0.2-0.9-0.2c-0.4,0-0.8,0.1-1.3,0.2
		l-11.2,2.7c-0.9,0.2-1.5,0.5-1.7,0.9c-0.2,0.4-0.3,1-0.1,1.9c-0.1,0.1-0.3,0.2-0.5,0.3c-0.2,0.1-0.4,0.1-0.6,0.2
		c-0.1-0.3-0.1-0.7-0.3-1.3s-0.2-1-0.3-1.6s-0.2-1-0.4-1.5l-0.3-1.2c-0.5-2.2-1-4.1-1.4-5.5C12.8,102.4,12.5,101.4,12.3,100.9z"/>
	<path fill="#303030" d="M12,80.8c0.1-1.2,0.4-2.3,0.7-3.2c0.3-0.9,0.7-1.5,1.1-1.9c0.5,0.1,1.2,0.1,1.9,0.2c0.7,0.1,1.3,0.1,1.8,0
		c0.1,0.3,0.1,0.6,0.1,0.9c0,0.3,0,0.7-0.1,1c-0.8,0.1-1.5,0.2-2,0.4c-0.5,0.2-1,0.4-1.3,0.7c-0.3,0.3-0.6,0.6-0.7,0.9
		s-0.2,0.7-0.3,1.2c-0.1,1,0,1.8,0.5,2.5c0.4,0.6,1.1,1,2,1.1c0.8,0.1,1.5-0.1,2.1-0.5c0.6-0.5,1.1-1,1.6-1.8c0.5-0.7,1-1.5,1.4-2.4
		s1-1.6,1.5-2.4c0.6-0.7,1.2-1.3,1.9-1.7c0.7-0.4,1.6-0.6,2.6-0.5c0.7,0.1,1.4,0.3,2,0.7s1.1,0.9,1.5,1.6s0.7,1.4,0.9,2.3
		c0.2,0.9,0.2,1.8,0.1,2.8c-0.1,0.8-0.2,1.5-0.3,2c-0.1,0.6-0.3,1.1-0.5,1.6c-0.2,0.5-0.4,1-0.7,1.4c-0.3,0.5-0.6,1-1,1.6
		c-0.7-0.2-1.4-0.4-2.1-0.5c-0.7-0.1-1.3-0.2-1.8-0.3c0-0.3,0-0.5,0-0.9c0-0.3,0-0.7,0.1-0.9c0.7,0,1.4,0,1.9-0.1
		c0.6-0.1,1.1-0.3,1.5-0.7c0.4-0.3,0.8-0.8,1.1-1.4c0.3-0.6,0.5-1.4,0.6-2.3c0.1-0.6,0-1.2-0.1-1.7s-0.3-0.9-0.5-1.2
		c-0.2-0.3-0.5-0.6-0.8-0.8s-0.7-0.3-1.1-0.4c-0.8-0.1-1.5,0.1-2.1,0.5c-0.6,0.5-1.1,1-1.6,1.8c-0.5,0.7-0.9,1.5-1.4,2.4
		s-0.9,1.7-1.5,2.4c-0.6,0.7-1.2,1.3-2,1.7c-0.8,0.4-1.7,0.6-2.8,0.5c-0.7-0.1-1.4-0.3-1.9-0.7c-0.6-0.4-1-0.8-1.4-1.4
		s-0.6-1.3-0.8-2C11.9,82.5,11.9,81.7,12,80.8z"/>
	<path fill="#303030" d="M19.4,58.5L18.6,60c-0.4,0.8-0.6,1.5-0.6,2c-0.1,0.5,0,1,0.1,1.4c0.1,0.4,0.4,0.7,0.7,1
		c0.3,0.3,0.6,0.6,1,0.9c-0.1,0.2-0.2,0.5-0.4,0.7c-0.2,0.2-0.3,0.4-0.5,0.6c-0.5-0.4-1.1-0.9-1.7-1.3c-0.6-0.4-1.3-0.7-1.8-1
		c0.4-0.8,1-1.9,1.6-3.3c0.7-1.4,1.3-2.8,2.1-4.4l1.1-2.3c0.4-0.8,0.7-1.5,1-2.2c0.3-0.7,0.6-1.3,0.9-1.9c0.3-0.6,0.5-1.1,0.7-1.5
		c1.2,0.5,2.4,1.1,3.9,1.6c0,0.3-0.1,0.5-0.2,0.8c-0.1,0.3-0.2,0.5-0.3,0.8c-0.9-0.4-1.8-0.4-2.6-0.1c-0.8,0.3-1.5,1.1-2.1,2.4
		l-0.7,1.5l12.9,6.1c0.4,0.2,0.8,0.3,1.1,0.4c0.3,0.1,0.6,0.1,0.8,0c0.2-0.1,0.5-0.3,0.7-0.6c0.2-0.3,0.5-0.7,0.7-1.1
		c0.3,0,0.7,0.1,1.2,0.4c-0.3,0.6-0.7,1.3-1,2s-0.6,1.3-0.9,2c-0.3,0.6-0.6,1.3-0.9,2.1c-0.3,0.7-0.6,1.4-0.8,2
		c-0.5-0.2-0.8-0.4-1-0.7c0.2-0.5,0.4-0.9,0.4-1.3c0.1-0.4,0.1-0.7,0-0.9s-0.2-0.5-0.5-0.7s-0.6-0.4-1-0.6L19.4,58.5z"/>
	<path fill="#303030" d="M34.1,34.9c0.2-0.3,0.5-0.6,0.9-1l16.4,5.4c0.6,0.2,1,0.3,1.4,0.4s0.7,0.1,1,0.1c0.3,0,0.5,0,0.7-0.1
		c0.2-0.1,0.4-0.2,0.6-0.3c0.2,0.1,0.4,0.2,0.5,0.3c0.1,0.1,0.3,0.2,0.4,0.4c-0.1,0.1-0.3,0.3-0.5,0.5c-0.2,0.2-0.5,0.4-0.8,0.7
		L54,42.1l-0.7,0.7c-0.2,0.2-0.4,0.4-0.7,0.7c-0.3,0.3-0.5,0.5-0.8,0.8c-0.3,0.3-0.5,0.5-0.7,0.7c-0.2,0.2-0.4,0.4-0.5,0.5
		c-0.2-0.2-0.3-0.3-0.4-0.5c-0.1-0.2-0.2-0.3-0.2-0.5c0.3-0.4,0.5-0.6,0.7-0.9c0.1-0.2,0.2-0.4,0.1-0.6c0-0.2-0.2-0.3-0.4-0.5
		s-0.6-0.3-1-0.4l-3.1-1c-1,1-2.1,2.1-3.3,3.2c-1.1,1.1-2.1,2.1-3,3.1l0.7,2c0.4,1.1,0.8,1.8,1.3,2c0.4,0.2,1-0.1,1.7-0.7
		c0.3,0.1,0.7,0.4,1,0.7c-0.3,0.2-0.7,0.6-1.1,1c-0.4,0.4-0.8,0.8-1.2,1.2c-0.4,0.4-0.8,0.8-1.1,1.1c-0.3,0.4-0.6,0.7-0.8,0.9
		c-0.1-0.1-0.3-0.3-0.4-0.5c-0.1-0.2-0.2-0.4-0.3-0.5c0.2-0.2,0.3-0.5,0.4-0.7c0.1-0.2,0.1-0.5,0.1-0.8c0-0.3-0.1-0.6-0.2-1
		c-0.1-0.4-0.3-0.9-0.5-1.5L34.1,34.9z M39.5,45.9l5.5-5.3l-5.3-1.8c-0.3-0.1-0.6-0.2-0.8-0.3c-0.3-0.1-0.5-0.2-0.8-0.3
		s-0.5-0.2-0.8-0.3c-0.2-0.1-0.5-0.2-0.7-0.3c0.3,0.6,0.5,1.1,0.7,1.6c0.2,0.5,0.4,1,0.5,1.4L39.5,45.9z"/>
	<path fill="#303030" d="M56.2,19.4c0.8-0.3,1.5-0.6,2.2-0.9c0.7-0.3,1.5-0.6,2.2-0.9c0.9-0.3,1.8-0.6,2.6-0.8
		c0.8-0.2,1.6-0.3,2.4-0.2c0.7,0.1,1.4,0.3,1.9,0.6c0.5,0.4,1,0.9,1.3,1.7c0.4,1.1,0.4,2.2-0.1,3.3c-0.5,1.1-1.4,2-2.8,2.7
		c0.8-0.3,1.6-0.5,2.5-0.6c0.8-0.1,1.6-0.1,2.3,0c0.7,0.1,1.3,0.4,1.9,0.8c0.5,0.4,1,1,1.3,1.8c0.3,0.7,0.4,1.4,0.3,2.2
		c0,0.7-0.3,1.5-0.7,2.1c-0.4,0.7-1.1,1.4-1.9,2c-0.8,0.6-1.9,1.2-3.3,1.7l-2.1,0.8c-0.8,0.3-1.6,0.6-2.4,0.9
		c-0.8,0.3-1.6,0.6-2.3,0.9s-1.3,0.5-1.7,0.7c-0.2-0.5-0.3-0.9-0.3-1.2c0.4-0.2,0.7-0.4,1-0.5c0.3-0.2,0.4-0.4,0.5-0.7
		c0.1-0.3,0.1-0.6,0.1-0.9c0-0.4-0.2-0.8-0.4-1.3l-4.1-10.8c-0.3-0.9-0.7-1.4-1.1-1.6c-0.4-0.2-1.1-0.1-1.9,0.1
		c-0.1-0.1-0.2-0.3-0.3-0.5c-0.1-0.2-0.2-0.4-0.3-0.6c0.4-0.1,0.9-0.3,1.5-0.5C55.1,19.8,55.6,19.6,56.2,19.4z M59.1,19.6
		c-0.1,0.1-0.3,0.2-0.4,0.3l2.5,6.7l1-0.4c1-0.4,1.8-0.8,2.4-1.2c0.6-0.4,1-0.9,1.3-1.3c0.3-0.5,0.4-0.9,0.4-1.4s-0.1-0.9-0.3-1.3
		c-0.3-0.7-0.6-1.2-1.1-1.5c-0.5-0.3-1-0.6-1.5-0.7c-0.6-0.1-1.1-0.1-1.7,0c-0.6,0.1-1.1,0.3-1.7,0.5C59.6,19.3,59.3,19.4,59.1,19.6
		z M61.7,27.7l1.9,5c0.2,0.5,0.4,1,0.6,1.2c0.2,0.3,0.5,0.5,0.7,0.6s0.6,0.1,1,0c0.4-0.1,0.9-0.2,1.5-0.5c1.5-0.6,2.6-1.3,3-2.3
		c0.5-0.9,0.5-2,0.1-3.1c-0.3-0.8-0.8-1.4-1.4-1.7c-0.6-0.4-1.3-0.5-2-0.6c-0.8,0-1.5,0-2.4,0.2c-0.8,0.2-1.6,0.5-2.4,0.7L61.7,27.7
		z"/>
	<path fill="#303030" d="M90,30.2c0.9,0,1.7,0,2.3-0.1s1.1-0.3,1.6-0.6c0.4-0.3,0.8-0.6,1.1-1.1c0.3-0.4,0.6-1,0.9-1.6
		c0.3,0.1,0.6,0.2,0.8,0.3c0.2,0.1,0.4,0.2,0.6,0.4c-0.3,0.6-0.5,1.3-0.7,2.1c-0.2,0.7-0.3,1.4-0.5,2.1c-0.3,0-0.7,0-1.2,0
		c-0.5,0-1,0-1.6-0.1c-0.6,0-1.2,0-1.8,0l-4.1-0.1c-0.8,0-1.7,0-2.5,0c-0.8,0-1.6,0-2.3,0c-0.7,0-1.3,0-1.7,0c0-0.5,0.1-0.9,0.2-1.2
		c0.4,0,0.8-0.1,1.1-0.1s0.5-0.2,0.7-0.4c0.2-0.2,0.3-0.5,0.4-0.8c0.1-0.3,0.1-0.8,0.1-1.3L83.8,16c0-0.9-0.1-1.6-0.5-1.9
		c-0.3-0.3-0.9-0.5-1.8-0.6c-0.1-0.1-0.1-0.3-0.1-0.5s0-0.4,0-0.7c0.3,0,0.7,0,1,0.1l1.1,0l1.9,0c0.7,0,1.4,0,2.1,0c0.7,0,1.3,0,2,0
		c0,0.5-0.1,0.9-0.2,1.2c-0.4,0-0.8,0.1-1.1,0.1c-0.3,0.1-0.5,0.2-0.7,0.4c-0.2,0.2-0.3,0.4-0.4,0.7C87,15.3,87,15.7,87,16.2
		l-0.2,11.4c0,0.5,0,1,0.1,1.3c0.1,0.3,0.2,0.6,0.4,0.8s0.5,0.3,0.9,0.4c0.4,0.1,0.9,0.1,1.5,0.1L90,30.2z"/>
	<path fill="#303030" d="M108.3,18.8c0.3-0.9,0.3-1.5,0.1-2c-0.2-0.4-0.7-0.8-1.6-1.1c0-0.3,0-0.7,0.2-1.2c1.2,0.4,2.4,0.8,3.9,1.3
		c0.7,0.2,1.3,0.4,2,0.6c0.6,0.2,1.3,0.4,1.9,0.5c-0.2,0.5-0.3,0.9-0.5,1.1c-0.9-0.2-1.5-0.2-1.9,0c-0.4,0.2-0.7,0.8-1,1.7
		l-3.5,11.3c-0.3,0.9-0.3,1.5-0.1,1.9c0.2,0.4,0.7,0.8,1.6,1.1c0,0.3,0,0.7-0.2,1.2c-1.3-0.4-2.6-0.9-3.9-1.3
		c-0.6-0.2-1.3-0.4-2-0.6c-0.7-0.2-1.3-0.4-1.9-0.5c0.2-0.5,0.3-0.9,0.5-1.1c0.9,0.2,1.5,0.2,1.9,0c0.4-0.2,0.7-0.8,1-1.7
		L108.3,18.8z"/>
	<path fill="#303030" d="M130.7,25c1,0.7,1.9,1.4,2.5,2.1c0.6,0.7,1,1.3,1.2,1.8c-0.3,0.5-0.6,1-1,1.6c-0.4,0.6-0.7,1.1-0.9,1.6
		c-0.3-0.1-0.5-0.2-0.8-0.3c-0.3-0.2-0.6-0.3-0.9-0.5c0.3-0.8,0.5-1.4,0.6-2c0.1-0.6,0.1-1,0-1.4c-0.1-0.4-0.3-0.8-0.5-1.1
		c-0.2-0.3-0.5-0.6-0.9-0.8c-0.8-0.6-1.6-0.8-2.4-0.7c-0.8,0.1-1.4,0.5-1.9,1.2c-0.5,0.7-0.6,1.4-0.5,2.1c0.1,0.7,0.4,1.5,0.8,2.2
		c0.4,0.8,0.9,1.6,1.4,2.4c0.5,0.8,1,1.6,1.4,2.4c0.4,0.8,0.6,1.7,0.7,2.5c0.1,0.8-0.2,1.7-0.8,2.6c-0.4,0.6-0.9,1.1-1.6,1.4
		s-1.4,0.6-2.1,0.6c-0.8,0.1-1.6,0-2.4-0.2c-0.8-0.2-1.7-0.6-2.5-1.2c-0.7-0.4-1.2-0.8-1.7-1.2c-0.5-0.4-0.9-0.8-1.2-1.2
		c-0.3-0.4-0.7-0.8-1-1.3s-0.6-1-0.9-1.6c0.5-0.5,1-1.1,1.4-1.6c0.4-0.6,0.8-1.1,1.1-1.5c0.2,0.1,0.5,0.2,0.8,0.4
		c0.3,0.2,0.6,0.3,0.8,0.5c-0.4,0.6-0.6,1.2-0.8,1.8c-0.2,0.6-0.2,1.1-0.1,1.7c0.1,0.5,0.3,1.1,0.7,1.6c0.4,0.5,1,1,1.8,1.6
		c0.5,0.3,1,0.6,1.5,0.7c0.5,0.1,0.9,0.2,1.3,0.1c0.4,0,0.8-0.2,1.1-0.4c0.3-0.2,0.6-0.5,0.8-0.8c0.5-0.7,0.6-1.4,0.5-2.1
		c-0.1-0.7-0.4-1.5-0.9-2.2c-0.4-0.7-0.9-1.5-1.5-2.3c-0.6-0.8-1-1.6-1.4-2.4c-0.4-0.8-0.6-1.7-0.6-2.5c0-0.9,0.3-1.8,0.9-2.7
		c0.4-0.6,0.9-1.1,1.5-1.4c0.6-0.3,1.2-0.5,1.9-0.6c0.7-0.1,1.4,0,2.2,0.2C129.1,24.1,129.9,24.5,130.7,25z"/>
	<path fill="#303030" d="M146.6,56.1l-1.1-1.6c-0.6-0.8-1.1-1.7-1.7-2.6c-0.6-0.9-1.2-1.7-1.8-2.5c-0.5-0.6-0.9-1.2-1.2-1.7l-4.5,3
		c-0.8,0.5-1.2,1-1.3,1.5c-0.1,0.5,0.1,1.1,0.6,1.8c-0.2,0.2-0.5,0.5-0.9,0.8c-0.7-1.1-1.4-2.3-2.2-3.4c-0.4-0.5-0.8-1.1-1.2-1.7
		c-0.4-0.6-0.8-1.1-1.2-1.6c0.4-0.3,0.8-0.5,1.1-0.5c0.5,0.7,1,1.1,1.5,1.2c0.5,0.1,1.1-0.1,1.8-0.7l9.8-6.6c0.8-0.5,1.2-1,1.3-1.5
		s-0.1-1.1-0.6-1.8c0.2-0.2,0.5-0.5,0.9-0.8c0.6,1.1,1.4,2.2,2.2,3.4c0.4,0.6,0.8,1.2,1.2,1.7c0.4,0.5,0.8,1.1,1.2,1.6
		c-0.4,0.3-0.8,0.5-1.1,0.5c-0.5-0.7-1-1.1-1.5-1.2c-0.5-0.1-1.1,0.1-1.8,0.7l-4.2,2.8l5.7,8.5l4.2-2.8c0.8-0.5,1.2-1,1.3-1.5
		s-0.1-1.1-0.6-1.8c0.2-0.2,0.5-0.5,0.9-0.8c0.6,1.1,1.4,2.2,2.2,3.4c0.4,0.6,0.8,1.2,1.2,1.7c0.4,0.5,0.8,1.1,1.2,1.6
		c-0.4,0.3-0.8,0.5-1.1,0.5c-0.5-0.7-1-1.1-1.5-1.2s-1.1,0.1-1.8,0.7l-9.8,6.6c-0.8,0.5-1.2,1-1.3,1.5c-0.1,0.5,0.1,1.1,0.6,1.8
		c-0.2,0.2-0.5,0.5-0.9,0.8c-0.7-1.1-1.4-2.3-2.2-3.4c-0.4-0.5-0.8-1.1-1.2-1.7c-0.4-0.6-0.8-1.1-1.2-1.6c0.4-0.3,0.8-0.5,1.1-0.5
		c0.5,0.7,1,1.1,1.5,1.2c0.5,0.1,1.1-0.1,1.8-0.7L146.6,56.1z"/>
	<path fill="#303030" d="M164.9,81.5c-0.3,0.1-0.6,0.2-1,0.3c-0.4,0.1-0.7,0.3-1.1,0.4c-0.4,0.1-0.8,0.3-1.1,0.4s-0.7,0.3-1,0.4
		c-0.2-0.2-0.3-0.4-0.4-0.6s-0.2-0.5-0.2-0.8c0.4-0.1,0.8-0.3,1.2-0.5s0.7-0.6,1-1.1c0.3-0.5,0.4-1.1,0.5-1.8c0.1-0.7,0-1.6-0.2-2.7
		l-0.4-2.4l-7.5,1.4l0.3,1.4c0.1,0.7,0.3,1.2,0.4,1.7c0.1,0.5,0.3,0.8,0.6,1.1c0.2,0.3,0.5,0.4,0.8,0.5c0.3,0.1,0.7,0.1,1.1,0
		c0.1,0.3,0.2,0.5,0.3,0.7c0.1,0.2,0.1,0.5,0.2,0.8c-0.5,0-1,0.1-1.5,0.2l-3.1,0.6c-0.6,0.1-1.1,0.2-1.6,0.4
		c-0.1-0.3-0.1-0.6-0.1-0.8c0-0.2,0-0.5,0-0.7c0.5-0.1,0.8-0.3,1.1-0.5c0.3-0.2,0.5-0.5,0.6-0.8c0.1-0.3,0.2-0.7,0.2-1.2
		c0-0.5-0.1-1-0.2-1.7l-0.3-1.4l-5,0.9c-0.5,0.1-0.9,0.2-1.2,0.4c-0.3,0.1-0.5,0.3-0.7,0.6c-0.2,0.3-0.2,0.6-0.2,1
		c0,0.4,0.1,0.9,0.2,1.5l0,0.2c0.2,1,0.4,1.8,0.7,2.4c0.3,0.6,0.6,1.1,1,1.4s0.8,0.6,1.3,0.8c0.5,0.2,1,0.3,1.6,0.5
		c0,0.3-0.1,0.6-0.1,0.9c-0.1,0.2-0.1,0.5-0.3,0.7c-0.7-0.1-1.4-0.2-2.2-0.2c-0.8,0-1.5,0-2.1,0c-0.1-0.3-0.1-0.7-0.2-1.2
		c-0.1-0.5-0.2-1-0.3-1.6c-0.1-0.6-0.2-1.2-0.3-1.8l-0.7-4c-0.2-0.8-0.3-1.6-0.5-2.4s-0.3-1.6-0.5-2.3c-0.1-0.7-0.3-1.3-0.4-1.7
		c0.5-0.1,0.9-0.1,1.2-0.1c0.1,0.4,0.2,0.8,0.4,1.1c0.1,0.3,0.3,0.5,0.6,0.6c0.2,0.1,0.5,0.2,0.9,0.2c0.4,0,0.8,0,1.3-0.1l11.3-2.1
		c0.9-0.2,1.5-0.4,1.8-0.8c0.3-0.4,0.3-1,0.2-1.9c0.1-0.1,0.3-0.2,0.5-0.2s0.4-0.1,0.6-0.2c0,0.3,0.1,0.8,0.2,1.3
		c0.1,0.5,0.2,1,0.3,1.6c0.1,0.5,0.2,1.1,0.3,1.5l0.2,1.2c0.4,2.3,0.8,4.1,1.1,5.6C164.5,79.9,164.7,80.9,164.9,81.5z"/>
	<path fill="#303030" d="M165.4,95.5c-0.1,0.2-0.1,0.5-0.2,0.8c-0.1,0.3-0.2,0.7-0.3,1.1c-0.1,0.4-0.2,0.8-0.3,1.1l-0.2,1.1
		c-0.2,0.7-0.3,1.4-0.4,2.2c-0.1,0.7-0.3,1.4-0.4,2.1c-0.3,1.4-0.8,2.9-1.3,4.3c-0.5,1.4-1.3,2.7-2.2,3.7c-0.9,1.1-2,1.8-3.3,2.3
		c-1.3,0.5-2.9,0.5-4.8,0.1c-1.5-0.3-2.7-0.8-3.7-1.5c-1-0.7-1.7-1.5-2.3-2.3c-0.6-0.9-1-1.8-1.2-2.8c-0.2-1-0.4-2-0.4-3
		s0-1.9,0.2-2.8c0.1-0.9,0.2-1.6,0.4-2.2l0.5-2.1c0.2-0.8,0.4-1.6,0.5-2.4c0.2-0.8,0.3-1.6,0.5-2.3c0.1-0.7,0.3-1.3,0.3-1.7
		c0.5,0.1,0.9,0.3,1.1,0.4c-0.1,0.4-0.1,0.8-0.1,1.1c0,0.3,0.1,0.6,0.3,0.8c0.2,0.2,0.4,0.4,0.7,0.6s0.7,0.3,1.3,0.4l11.2,2.5
		c0.9,0.2,1.6,0.2,2-0.1c0.4-0.2,0.7-0.8,0.9-1.7c0.2,0,0.3,0,0.6,0C164.9,95.4,165.2,95.5,165.4,95.5z M149.4,97.8
		c-0.5-0.1-0.9-0.2-1.3-0.2c-0.3,0-0.6,0.1-0.9,0.3c-0.2,0.2-0.4,0.4-0.6,0.8c-0.2,0.4-0.3,0.9-0.4,1.5c-0.3,1.3-0.4,2.6-0.4,3.7
		c0,1.2,0.3,2.2,0.7,3.2c0.4,0.9,1.1,1.8,2.1,2.4c0.9,0.7,2.2,1.2,3.7,1.5c1.5,0.3,2.8,0.3,4,0c1.2-0.3,2.2-0.8,3-1.6
		c0.9-0.8,1.6-1.7,2.1-2.8c0.6-1.1,1-2.3,1.2-3.5c0.1-0.4,0.2-0.8,0.2-1.3c0.1-0.5,0.1-0.9,0.1-1.2L149.4,97.8z"/>
</g>
<circle fill="none" stroke="#303030" stroke-miterlimit="10" cx="88.3" cy="89.1" r="82.8"/>
<path fill="none" stroke="#303030" stroke-miterlimit="10" d="M152,123.1c-12.2,22.6-36,37.9-63.4,37.9c-27.4,0-51.3-15.4-63.4-37.9
	"/>
<path fill="none" stroke="#FFFFFF" stroke-miterlimit="10" d="M20.2,89.1"/>
<path fill="none" stroke="#303030" stroke-linecap="round" stroke-linejoin="round" stroke-miterlimit="10" d="M147.8,123.2
	c-11.8,20.5-33.9,34.2-59.3,34.2c-25.3,0-47.5-13.8-59.3-34.3"/>
<path fill="none" stroke="#FFFFFF" stroke-miterlimit="10" d="M88.3,89.1"/>
<g>
	
		<circle fill="none" stroke="#303030" stroke-width="1.5" stroke-miterlimit="10" stroke-dasharray="1.0019,1.0019" cx="88.3" cy="89.1" r="50.4"/>
</g>
</svg>
