<?xml version="1.0" encoding="iso-8859-1"?>
<!-- Generator: Adobe Illustrator 19.0.0, SVG Export Plug-In . SVG Version: 6.00 Build 0)  -->
<svg version="1.1" id="Capa_1" xmlns="http://www.w3.org/2000/svg" xmlns:xlink="http://www.w3.org/1999/xlink" x="0px" y="0px"
	 viewBox="0 0 512 512" style="enable-background:new 0 0 512 512;" xml:space="preserve">
<circle style="fill:#FFE67D;" cx="256" cy="256" r="256"/>
<path style="fill:#F7D139;" d="M512,256c0-3.266-0.082-6.513-0.203-9.75L265.75,0.203L250,128l-72.75,25.25l81.212,81.212
	L67,390.299l108.902,108.902C201.102,507.496,228.023,512,256,512C397.385,512,512,397.385,512,256z"/>
<path style="fill:#78BEFF;" d="M265.75,0.203C262.513,0.082,259.266,0,256,0s-6.513,0.082-9.75,0.203V121.5h19.5V0.203z"/>
<path style="fill:#64AFFF;" d="M265.75,0.203C262.513,0.082,259.266,0,256,0c-0.143,0-0.285,0.004-0.429,0.005V121.5h10.179V0.203z"
	/>
<rect x="101" y="188.8" style="fill:#FA5D0F;" width="310" height="134"/>
<rect x="255.57" y="188.8" style="fill:#F24500;" width="155.43" height="134"/>
<g>
	<rect x="67" y="239.8" style="fill:#D13400;" width="59.746" height="150.5"/>
	<rect x="385.25" y="239.8" style="fill:#D13400;" width="59.746" height="150.5"/>
	<rect x="95.83" y="305.8" style="fill:#D13400;" width="320.34" height="58"/>
</g>
<rect x="255.57" y="305.8" style="fill:#B22904;" width="160.6" height="58"/>
<circle style="fill:#FFFFFF;" cx="256" cy="151.5" r="23.5"/>
<path style="fill:#F2F6FC;" d="M256,128c-0.144,0-0.285,0.008-0.429,0.011v46.979c0.143,0.002,0.285,0.011,0.429,0.011
	c12.979,0,23.5-10.521,23.5-23.5S268.979,128,256,128z"/>
<path style="fill:#2864F0;" d="M177.25,153.25c0-43.492,35.258-78.75,78.75-78.75s78.75,35.258,78.75,78.75H177.25z"/>
<path style="fill:#0053BF;" d="M256,74.5c-0.144,0-0.285,0.01-0.429,0.011v78.739h79.179C334.75,109.758,299.492,74.5,256,74.5z"/>
<g>
</g>
<g>
</g>
<g>
</g>
<g>
</g>
<g>
</g>
<g>
</g>
<g>
</g>
<g>
</g>
<g>
</g>
<g>
</g>
<g>
</g>
<g>
</g>
<g>
</g>
<g>
</g>
<g>
</g>
</svg>
