<?xml version="1.0" encoding="iso-8859-1"?>
<!-- Generator: Adobe Illustrator 19.0.0, SVG Export Plug-In . SVG Version: 6.00 Build 0)  -->
<svg version="1.1" id="Capa_1" xmlns="http://www.w3.org/2000/svg" xmlns:xlink="http://www.w3.org/1999/xlink" x="0px" y="0px"
	 viewBox="0 0 512 512" style="enable-background:new 0 0 512 512;" xml:space="preserve">
<circle style="fill:#FFE45C;" cx="256" cy="256" r="256"/>
<path style="fill:#FFBC36;" d="M512,256c0-5.14-0.169-10.239-0.468-15.303l-93.565-93.565L57,350.826l157.87,157.87
	C228.262,510.858,241.997,512,256,512C397.385,512,512,397.385,512,256z"/>
<path style="fill:#F84F24;" d="M82.443,302.211h347.115V175.832c0-22.848-18.522-41.369-41.369-41.369H123.812
	c-22.848,0-41.369,18.522-41.369,41.369C82.443,175.832,82.443,302.211,82.443,302.211z"/>
<path style="fill:#DB2B0E;" d="M429.557,175.833c0-22.848-18.522-41.369-41.369-41.369H255.571v167.748h173.986V175.833z"/>
<rect x="57" y="190.02" style="fill:#AF0F0B;" width="56.895" height="141.04"/>
<rect x="398.11" y="190.02" style="fill:#9E0B0B;" width="56.895" height="141.04"/>
<rect x="85.45" y="327.85" style="fill:#AF0F0B;" width="48.762" height="49.683"/>
<rect x="377.79" y="327.85" style="fill:#9E0B0B;" width="48.762" height="49.683"/>
<rect x="57" y="286.72" style="fill:#DB2B0E;" width="398" height="64.11"/>
<rect x="255.57" y="286.72" style="fill:#AF0F0B;" width="199.43" height="64.11"/>
<g>
</g>
<g>
</g>
<g>
</g>
<g>
</g>
<g>
</g>
<g>
</g>
<g>
</g>
<g>
</g>
<g>
</g>
<g>
</g>
<g>
</g>
<g>
</g>
<g>
</g>
<g>
</g>
<g>
</g>
</svg>
